<?xml version="1.0" encoding="UTF-8"?>
<svg id="Ebene_1" xmlns="http://www.w3.org/2000/svg" version="1.1" viewBox="0 0 141.73 141.73">
  <!-- Generator: Adobe Illustrator 30.5.1, SVG Export Plug-In . SVG Version: 2.1.4 Build 3)  -->
  <defs>
    <style>
      .st0 {
        fill: #1d1d1b;
      }
    </style>
  </defs>
  <path class="st0" d="M113.37,41.52c-.15.82,1.14,2.25,3.75,3.96,4.59,3.01,27.12,10.69,16.17,16.24-14.02,7.11-47.85.58-74.23,2.19-27.21,1.66,29.51,11.91,57.84,16.85,14.27,2.49,6.7,14.81-22.65,19.91-15.78,2.74-57.85,9.25-77.05,16.02-.1.03-.19.06-.29.09,13,15.25,32.34,24.94,53.95,24.94,39.14,0,70.87-31.73,70.87-70.87,0-11.93-2.96-23.16-8.17-33.03-7.51.89-20.7,2.6-20.19,3.68Z"/>
  <path class="st0" d="M96.63,90.22c4.37-3.76-26.42-4.73-47.23-10.3-12.18-3.26-30.75-10.68-34.52-16.15-10.2-14.82,37-8.92,65.58-7.88,29.36,1.06,44.13,1.38,36.93-5.2-5.52-5.05-8.93-6.02-12.69-8.7-3.8-3.42-2.87-5.8,1.82-5.8l26.75,1.09C121.3,15.08,97.85,0,70.87,0,31.73,0,0,31.73,0,70.87c0,8.32,1.45,16.31,4.08,23.72.77-.15,1.56-.3,2.39-.43,36.92-5.96,85.13.39,90.16-3.94Z"/>
</svg>